<?xml version="1.0" encoding="UTF-8"?>
<svg width="20px" height="20px" viewBox="0 0 20 20" version="1.1" xmlns="http://www.w3.org/2000/svg" xmlns:xlink="http://www.w3.org/1999/xlink">
    <!-- Generator: Sketch 60.1 (88133) - https://sketch.com -->
    <title>icon-search</title>
    <desc>Created with Sketch.</desc>
    <g id="Page-1" stroke="none" stroke-width="1" fill="none" fill-rule="evenodd">
        <g id="icon-search" fill="#FFFFFF" fill-rule="nonzero">
            <path d="M19.6329924,17.9629367 L14.1572781,12.4850796 C15.1388077,11.1463705 15.6646092,9.52790319 15.6572781,7.86793674 C15.6385499,3.53487352 12.1338809,0.0251063425 7.8008495,-7.28306304e-14 C5.72724973,-0.00930224708 3.7360229,0.811017553 2.27075805,2.27829495 C0.805493199,3.74557234 -0.0120927551,5.73792322 1.05870868e-12,7.81150817 C0.0188633728,12.1449659 3.52385217,15.6550528 7.85727807,15.6800796 C9.52400692,15.6873034 11.1483873,15.1553645 12.4879924,14.163651 L12.4937066,14.1593653 L17.9644209,19.6329367 C18.260205,19.9432417 18.7009435,20.0688459 19.1158708,19.9610835 C19.5307981,19.8533211 19.8547171,19.5291247 19.9621244,19.1141054 C20.0695317,18.699086 19.9435504,18.2584552 19.6329924,17.9629367 L19.6329924,17.9629367 Z M7.85156379,14.1115619 C4.38501245,14.0915668 1.581067,11.2837977 1.56575049,7.81722245 C1.5564932,6.15856934 2.21061578,4.56500874 3.38260696,3.39127352 C4.55459814,2.21753831 6.14718431,1.56104685 7.8058495,1.56788305 C11.2724008,1.58787815 14.0763463,4.39564716 14.0916628,7.86222245 C14.1009201,9.52087557 13.4467975,11.1144362 12.2748063,12.2881714 C11.1028151,13.4619066 9.51022898,14.1183981 7.85156379,14.1115619 Z" id="Search"></path>
        </g>
    </g>
</svg>