<svg xmlns="http://www.w3.org/2000/svg" viewBox="0 0 454.7 160.25"><defs><style>.cls-1{fill:#231f20;}.cls-2{fill:#ffce34;}</style></defs><title>Golden1_Logo</title><g id="Layer_2" data-name="Layer 2"><g id="Layer_1-2" data-name="Layer 1"><path class="cls-1" d="M193.52,135.38c-1-2.91-3-5-6.24-5-4.38,0-7.05,4.1-7.05,12.15s2.29,12.15,7.24,12.15c3,0,4.77-1.05,6.72-5.09l6.1,1.61c-2,6-6.53,9-12.82,9-8.76,0-13.81-6.44-13.81-17.68s5.05-17.68,13.81-17.68c6.58,0,10.39,3,12,9.06Z"/><path class="cls-1" d="M206.23,159.77V135h5.43v4.24h.09c1.43-3,3.43-4.62,7-4.72v6.24a6.46,6.46,0,0,0-1.05,0c-3,0-5.53,3.39-5.53,4v15.05Z"/><path class="cls-1" d="M228.66,148.33c.1,5.15,2.38,7.15,5.15,7.15s4.05-1.23,5.52-2.95l4.29,2.67c-2.29,3.52-5.62,5.05-10.39,5.05-6.43,0-10.48-5-10.48-12.87s4.05-12.86,10.77-12.86c6.48-.05,10.1,5.43,10.1,11.39v2.42Zm9.53-4c-.09-3.43-1.91-5.43-4.77-5.43s-4.66,2-4.76,5.43Z"/><path class="cls-1" d="M270.8,159.77h-5l-.28-2.67c-2.1,2.05-4.05,3.15-6.72,3.15-6.58,0-9.91-5.81-9.91-13.53,0-6.1,3.53-12.2,9.91-12.2a8.57,8.57,0,0,1,6,2.76h.1V125.37h5.91Zm-5.91-18.39a6.75,6.75,0,0,0-4.58-2.1c-3.52,0-5.52,2.86-5.52,8.1s2,8.1,5.52,8.1c2.53,0,3.34-1.23,4.58-2.19Z"/><path class="cls-1" d="M278.72,130.42v-5.53h5.91v5.53Zm5.91,29.35h-5.91V135h5.91Z"/><path class="cls-1" d="M294.29,135v-8.2h5.9V135h4.86v4.76h-4.86v14c0,1.33.67,1.71,2.15,1.71a13,13,0,0,0,2.71-.47v4.86a38.68,38.68,0,0,1-4.67.38c-4.38,0-6.09-2.19-6.09-5.72V139.76h-3.44V135Z"/><path class="cls-1" d="M345.18,125.37h6.57v21.54c0,10.05-6.19,13.34-13.19,13.34s-13.2-3.29-13.2-13.34V125.37h6.57V147.2c0,5.57,2.2,7.52,6.63,7.52s6.62-1.95,6.62-7.52Z"/><path class="cls-1" d="M359.68,159.77V135h5.43v2.66c2.19-1.52,4.71-3.14,7.62-3.14,5,0,7.34,3.24,7.34,8.29v17h-5.91v-16.1c0-3.34-1.05-4.39-3.05-4.39a7.56,7.56,0,0,0-5.53,2.62v17.87Z"/><path class="cls-1" d="M388,130.42v-5.53h5.9v5.53Zm5.9,29.35H388V135h5.9Z"/><path class="cls-1" d="M411.14,134.52c6.72,0,10.77,5,10.77,12.86s-4.05,12.87-10.77,12.87-10.77-5-10.77-12.87S404.42,134.52,411.14,134.52Zm0,4.76c-3.29,0-4.86,2.58-4.86,8.1s1.57,8.1,4.86,8.1,4.86-2.57,4.86-8.1S414.43,139.28,411.14,139.28Z"/><path class="cls-1" d="M427.78,159.77V135h5.43v2.66c2.19-1.52,4.72-3.14,7.63-3.14,5,0,7.33,3.24,7.33,8.29v17h-5.91v-16.1c0-3.34-1-4.39-3-4.39a7.54,7.54,0,0,0-5.53,2.62v17.87Z"/><path class="cls-1" d="M443.64,90.06c-.75-.29-.93-.4-.93-3.62V14.19C442.71.68,433.74,0,432,0a16.63,16.63,0,0,0-7.9,2.46L395.4,17.8c-2.53,1.43-7.78,4.41-7.78,10.91s5.43,11.43,12.93,11.48c1.08,0,4.35.05,4.78.66s.2,34.75.2,34.75c0,2.41,0,4.59-.12,6.71A6.07,6.07,0,0,1,400,88.2s-10.42,2-11.87,2a6.08,6.08,0,0,1-6-5.9s-.05-11.51-.18-15.74A24.83,24.83,0,0,0,356.5,44.4a24.51,24.51,0,0,0-11.29,2.84A9.32,9.32,0,0,0,338,44c-2,0-3.08.41-5.36,1.62s-16.36,8.81-16.36,8.81a11.93,11.93,0,0,0-2.61,1.79,35.77,35.77,0,0,0-14.32-10.77A34.72,34.72,0,0,0,286,42.84a36.58,36.58,0,0,0-29.47,14.89V27c0-6.37-4.29-11-10-11a11.87,11.87,0,0,0-4.65,1.34l-15.22,7.1c-4.66,2.18-7,5.46-7,9.75a8.43,8.43,0,0,0,7,8.69v1.82a33,33,0,0,0-8.17-1,32.21,32.21,0,0,0-3.69.22A33.75,33.75,0,0,0,190.49,59.6c-.06-10.07,0-28.19,0-29.92s.11-9.38-5.6-12a9.76,9.76,0,0,0-8.85.49c-1.72.95-10.42,5.92-15.25,8.65s-7.38,5.77-7.38,10.2c0,3.11,1.31,7.12,7.27,8.91V58A37.06,37.06,0,0,0,130,42.31a37.8,37.8,0,0,0-22.53,7.34,7.22,7.22,0,0,1-3.84,1.15,7.13,7.13,0,0,1-6.43-4.14l-10-24.45c-1.89-5.6-6-8.94-10.93-8.94a10.64,10.64,0,0,0-7.61,3.55s-10.63-1.2-14.77-1.2A58.56,58.56,0,0,0,17.62,28.54C6.26,37.76,0,50.43,0,64.2,0,80.45,8,95,21.37,103.13c13.65,8.34,30.23,9.39,43.14,9.39H440.3c10.62,0,14.4-6.14,14.4-11.85C454.7,92.82,447.49,90.87,443.64,90.06Z"/><path class="cls-2" d="M88.58,62.83h-19c-3.24,0-6.73-.2-6.73,3.89,0,6,6.73.8,6.73,10,0,2.23.13,5.6.13,7.46,0,5.83-1.09,9.8-9.62,9.8C42.51,94,30.73,80.69,30.73,62.7c0-15.62,8.77-29.51,25-29.51C70.9,33.19,82.21,48,86.06,48a2.74,2.74,0,0,0,2.76-3A15.08,15.08,0,0,0,88,41.62L81,24.5c-.71-2.23-2.16-4.58-4.68-4.58s-3.61,3.6-5.9,3.6c-5.41,0-11.07-1.25-16.48-1.25-22.61,0-47.27,16.5-47.27,41.92,0,13.64,6.73,26.3,18.16,33.24,11.79,7.19,26.22,8.44,39.69,8.44H85.46a3.43,3.43,0,0,0,3.36-2.75,8.22,8.22,0,0,0,0-1.57v-25c0-3.1,0-5.83,3.25-6.57,2.29-.62,3.49-1.41,3.49-3.77C95.32,62.26,91.71,62.83,88.58,62.83Z"/><path class="cls-2" d="M184.49,95.84c-.74-4.71-.74-67.89-.74-67.89l-.36-2.37c-.34-1-1-2.06-2.22-2.06a16.86,16.86,0,0,0-2.32.74l-14.6,8.31c-1.84.86-4.17,2.1-4.17,4.46,0,3.84,5.89,1.59,6.74,5.18a17.25,17.25,0,0,1,.62,5.09V87.79c0,16.37-7.61,9.22-7.61,15.3.25,3.11,3.31,2.78,5.89,2.78h19.62c2.46,0,5.9.2,5.9-3C191.24,99.25,185.47,99.69,184.49,95.84Z"/><path class="cls-2" d="M160.34,77.11a29.21,29.21,0,0,0-.29-3.27c-1.65-11.33-10.16-20.48-21.33-23.67a31.91,31.91,0,0,0-9.59-1.2c-16.8.45-30.07,13.78-29.65,29.77a27.75,27.75,0,0,0,4.12,13.81A30.53,30.53,0,0,0,128,106.83c.88,0,1.76.07,2.66,0C147.49,106.43,160.77,93.1,160.34,77.11ZM139.52,92.25c-2.58,5.22-7.65,8.53-13.25,5.76-11.65-5.78-10.47-26.36-5.08-36.72,2.35-4.51,7.7-7.8,12.54-5.4C144.06,61,144,83.25,139.52,92.25Z"/><path class="cls-2" d="M253.63,99.61c-3.93-2-3.56-10.49-3.68-14.21s-.11-43.93-.11-43.93c0-5.33-.14-9.15-.14-14.49,0-2.1-.85-4.34-3.18-4.34a18.82,18.82,0,0,0-2.45,1l-14.6,6.82c-1.59.74-3.19,1.73-3.19,3.71,0,4.72,6.38-1,7,8.41V54.45a31.55,31.55,0,0,0-14.83-4.15,25.45,25.45,0,0,0-2.92.17C201.21,52.16,191,66.13,191,80.32c0,15.25,8.46,26.53,24,26.53,7.74,0,13.13-3.47,18.41-8.55v3.48c0,2.35.24,4.7,2.45,4.83h17.66c2.32,0,3.68-1.16,3.68-3.39C256.94,101.1,255.23,100.36,253.63,99.61ZM233.27,80.08c0,6.33-3.33,13.73-9.69,14.63s-9.48-1.08-12.13-4.37c-3.61-4.47-4.29-11.43-4-17C207.73,66,211.81,58,219.9,58c11,0,13.37,11.54,13.37,20.47Z"/><path class="cls-2" d="M313.05,69.14a27.74,27.74,0,0,0-16.22-17.52c-13.93-5.81-31.74.6-37.71,14.91-6.59,15.8.52,31.26,15.8,37.63a42,42,0,0,0,26.51,2.06c2.65-.91,7.23-2.36,8.47-5.33a3,3,0,0,0-1.73-3.82c-2.09-.73-11.5,5.28-20.78,1.41-7-2.93-10.78-9.2-10.83-16.74l28.92-.2c2.21.12,7.67-.05,8.2-1.3C314.63,77.94,313.36,70.61,313.05,69.14ZM296.76,72c-.05.11-.35.52-.4.64-.94,1-2.87.81-4,.89L280,73.44a5.36,5.36,0,0,1-2-.19c-2.82-1.18.08-10,.84-11.88,1.86-4.46,6.79-7.65,11.54-5.67S298.76,67.15,296.76,72Z"/><path class="cls-2" d="M406.4,105.87c-3.64,0-8,.07-8-4.44,0-6.93,11.24-4.44,12.76-10.92,1.21-4.81,1.21-10.08,1.21-14.89V44c0-9.64-2.12-10.17-11.54-10.47-3,0-6.38-1.35-6.38-4.82,0-3,3-4.29,5.32-5.64L427.36,8.33a10.33,10.33,0,0,1,4.72-1.66c3.48,0,4.09,4.37,4.09,7.53V86.45c0,4.67.61,8.13,5.47,9.93,2.88.91,6.23.83,6.53,4.3,0,4.36-3.79,5.19-7.75,5.19Z"/><path class="cls-2" d="M356.51,51.05c12.57,0,18.56,9.71,18.81,17.71s.1,20.83.3,24.75,1.9,4.47,5.23,6.48a3.32,3.32,0,0,1,1.83,3c0,2.85-2.57,2.91-4.9,2.91H355.94c-1.95,0-4.4-.18-4.4-2.66,0-4.09,6.49-3.27,6.49-8.11,0-1.12,0-17.36.08-21.48.11-5.46-3.31-11.66-8.83-11.66-6.37,0-8.3,7.82-8.3,12.65v9.45a77.37,77.37,0,0,0,.74,12c.85,3.48,6.25,3.4,6.25,7.12,0,2.86-3.31,2.66-5.52,2.66H323c-2.08,0-5.39.2-5.39-2.66,0-4.58,7.11-.59,7.11-15.11,0-3.84-.12-10.71-.12-14.55,0-10.18-7.37-6.21-7.37-10.55,0-1.25,1.24-2.16,2.22-2.65l17.49-9.3a2.63,2.63,0,0,1,1.15-.38c2.31,0,2.94,2,2.94,4v4.54C344.57,54.79,350.14,51.05,356.51,51.05Z"/></g></g></svg>